<?xml version="1.0" encoding="utf-8"?>
<!-- Generator: Adobe Illustrator 26.0.0, SVG Export Plug-In . SVG Version: 6.00 Build 0)  -->
<svg version="1.1" id="레이어_1" xmlns="http://www.w3.org/2000/svg" xmlns:xlink="http://www.w3.org/1999/xlink" x="0px"
	 y="0px" viewBox="0 0 500 500" style="enable-background:new 0 0 500 500;" xml:space="preserve">
<style type="text/css">
	.st0{fill-rule:evenodd;clip-rule:evenodd;fill:#FFFFFF;}
</style>
<g>
	<g id="brand_icon_00000015349382672088204330000013330278862377765539_">
		<g id="postype_blog_avatar_black_00000132056605817055768850000007591255024010429864_">
			<path id="Rectangle_00000113332819955128433970000003121550538948759936_" d="M85,0h330c46.94,0,85,38.06,85,85v330
				c0,46.94-38.06,85-85,85H85c-46.94,0-85-38.06-85-85V85C0,38.06,38.06,0,85,0z"/>
		</g>
	</g>
	<path id="postype_symbol_00000167373025056826617510000014779858738401813159_" class="st0" d="M295.23,118.54
		c55.65,0,100.77,45.12,100.77,100.78s-45.12,100.78-100.77,100.78l-36.82,0.06v73.38H221.7V159.62h-31.98v233.92h-36.72V159.62H121
		v-41.08H295.23z M298.38,159.79H258.5v118.25h39.88c32.65,0,59.12-26.47,59.12-59.12S331.03,159.79,298.38,159.79L298.38,159.79z"
		/>
</g>
</svg>
